<svg xmlns="http://www.w3.org/2000/svg" viewBox="0 0 1636.97 515.2"><path fill="#0e0d13" d="M1584.84 251.53h-48.77a6 6 0 0 0-5.88 4.76l-1.82 8.58c-16-12-37.18-18.81-62.38-18.81h-3.8c-33.74 1-66.28 16.06-91.29 39.55a147.92 147.92 0 0 0-43.84 76.39c-14.5 68 24.45 117.36 92.42 117.36h3.79a134.48 134.48 0 0 0 63.49-18.76l-1.68 7.9a5.93 5.93 0 0 0 0 2.65 6 6 0 0 0 3.26 4 6 6 0 0 0 2.59.59h48.68a6 6 0 0 0 5.89-4.76l45.11-212.21a6 6 0 0 0-3.25-6.64 6.14 6.14 0 0 0-2.56-.62zm-98.22 150.62a74.46 74.46 0 0 1-48.14 20.85h-2c-35.76 0-56.36-26-48.72-61.88a77.87 77.87 0 0 1 23.11-40.27A74.21 74.21 0 0 1 1459 300h2c35.76 0 56.39 26.05 48.74 61.86a78 78 0 0 1-23.13 40.29zM1033.85 475.76h48.77a6 6 0 0 0 5.94-4.84l64.94-305.59a6 6 0 0 0-5.86-7.26h-48.77a6 6 0 0 0-5.88 4.76l-64.94 305.67a6 6 0 0 0 1.19 5 6.06 6.06 0 0 0 4.61 2.26zM1124.92 475.76h48.91a6 6 0 0 0 5.86-4.76l65-305.59a6.08 6.08 0 0 0-.05-2.65 6 6 0 0 0-1.17-2.38 6.16 6.16 0 0 0-2.08-1.64 6 6 0 0 0-2.59-.59H1190a6 6 0 0 0-3.78 1.34 6.1 6.1 0 0 0-2.11 3.42l-64.93 305.59a5.8 5.8 0 0 0 0 2.62 5.94 5.94 0 0 0 1.13 2.36 6.07 6.07 0 0 0 2 1.66 6.14 6.14 0 0 0 2.55.62zM1258.71 256.37l-45.11 212.21a6.08 6.08 0 0 0 0 2.65 6 6 0 0 0 1.18 2.38 5.84 5.84 0 0 0 2.08 1.64 6 6 0 0 0 2.59.59h48.76a6 6 0 0 0 5.89-4.76l45.11-212.2a6.12 6.12 0 0 0 0-2.66 5.88 5.88 0 0 0-1.18-2.37 6 6 0 0 0-2.08-1.65 6.09 6.09 0 0 0-2.59-.58h-48.77a6 6 0 0 0-5.88 4.75zM941.38 246.06c-64.37 0-125.07 51.66-138.66 116-14.49 68 24.45 117.37 92.42 117.37 35.1 0 60.71-8.25 92.8-27.29a7.09 7.09 0 0 0 3.91-6.57 7.51 7.51 0 0 0-.69-3.06l-11-31c-1-2.5-2.75-5.28-5.89-4.48a21.77 21.77 0 0 0-4.42 1.65c-19.64 8.77-37.25 14.57-57.16 14.57-27.64 0-46.21-15.43-48-37.62a2.12 2.12 0 0 1 .45-1.51 2.05 2.05 0 0 1 1.37-.75h142.86a7.82 7.82 0 0 0 6.74-4.95 202.8 202.8 0 0 0 5.34-20.88c14.16-65.41-12.66-111.48-80.07-111.48zm22.36 90.19a3.13 3.13 0 0 1-1.22 1.33 3.19 3.19 0 0 1-1.75.46h-83.84a2.09 2.09 0 0 1-1-.16 2 2 0 0 1-.83-.62 2.07 2.07 0 0 1-.45-.93 2.15 2.15 0 0 1 0-1c.46-3.19 6.43-12.27 17.3-21.29 10-8.25 23.57-14.06 35.75-14.06 16.78 0 25.39 5 30.81 12.24a30.44 30.44 0 0 1 5.2 24zM1308 163.6c-19.94 0-38.51 15.87-41.26 35.34s12.26 34.44 31.26 34.44c19.91 0 38.5-15.84 41.25-35.34s-11.81-34.44-31.25-34.44zM621.24 414.48a5.92 5.92 0 0 1 6.9-.69c26.82 15.65 78.78 15.48 86.07-3.16 13.37-34.19-119.87-25.2-109.5-96.27 4.29-29.41 22-47.73 53.64-59.75 55.42-21.07 109.83-3.21 136.92 18a6.1 6.1 0 0 1 1.67 2 6 6 0 0 1-1.4 7.26l-34.65 30.26a6.06 6.06 0 0 1-7 .69c-23.85-14-66.48-22.75-79.3-4.74-8.06 11.37 5.83 22.7 19.92 27.51 24.5 8.47 86 10.78 89.88 65.19 2.42 33.94-25.66 62.79-59.55 72.48-48.71 13.89-107.08 6.54-140.71-16.51a6 6 0 0 1-1.79-2 6 6 0 0 1-.74-2.6 6 6 0 0 1 2-4.85z"/><path fill="#b7c1d8" d="M333 415H155.11a95.22 95.22 0 0 0 88.78 60.73H471a15.21 15.21 0 0 0 14.91-12.08L533.55 239a95.15 95.15 0 0 0 .28-38.51L468.5 331.25A151.51 151.51 0 0 1 333 415z"/><path fill="#25f" d="M425 63.29a94.65 94.65 0 0 0-66.34-27.51l-153-.85a106.65 106.65 0 0 0-104.82 83.92l-54.3 248.51a15.22 15.22 0 0 0 8.25 17 15.16 15.16 0 0 0 6.55 1.52l28.25.17 59.22.36a95.12 95.12 0 0 1 1.95-25.58l32.29-152.25A106.61 106.61 0 0 1 287.38 124h153a97.2 97.2 0 0 1 12.76.85A95.27 95.27 0 0 0 425 63.29z"/><path fill="#022ea7" d="M287.38 124a106.61 106.61 0 0 0-104.33 84.52L150.76 360.9a95.12 95.12 0 0 0-1.95 25.58l165.83 1a104.74 104.74 0 0 0 103-82.52l33.53-153.56a95.44 95.44 0 0 0 2-26.49 97.2 97.2 0 0 0-12.76-.85z"/><path fill="#0e0d13" d="M1584.84 251.53h-48.77a6 6 0 0 0-5.88 4.76l-1.82 8.58c-16-12-37.18-18.81-62.38-18.81h-3.8c-33.74 1-66.28 16.06-91.29 39.55a147.92 147.92 0 0 0-43.84 76.39c-14.5 68 24.45 117.36 92.42 117.36h3.79a134.48 134.48 0 0 0 63.49-18.76l-1.68 7.9a5.93 5.93 0 0 0 0 2.65 6 6 0 0 0 3.26 4 6 6 0 0 0 2.59.59h48.68a6 6 0 0 0 5.89-4.76l45.11-212.21a6 6 0 0 0-3.25-6.64 6.14 6.14 0 0 0-2.56-.62zm-98.22 150.62a74.46 74.46 0 0 1-48.14 20.85h-2c-35.76 0-56.36-26-48.72-61.88a77.87 77.87 0 0 1 23.11-40.27A74.21 74.21 0 0 1 1459 300h2c35.76 0 56.39 26.05 48.74 61.86a78 78 0 0 1-23.13 40.29zM1033.85 475.76h48.77a6 6 0 0 0 5.94-4.84l64.94-305.59a6 6 0 0 0-5.86-7.26h-48.77a6 6 0 0 0-5.88 4.76l-64.94 305.67a6 6 0 0 0 1.19 5 6.06 6.06 0 0 0 4.61 2.26zM1124.92 475.76h48.91a6 6 0 0 0 5.86-4.76l65-305.59a6.08 6.08 0 0 0-.05-2.65 6 6 0 0 0-1.17-2.38 6.16 6.16 0 0 0-2.08-1.64 6 6 0 0 0-2.59-.59H1190a6 6 0 0 0-3.78 1.34 6.1 6.1 0 0 0-2.11 3.42l-64.93 305.59a5.8 5.8 0 0 0 0 2.62 5.94 5.94 0 0 0 1.13 2.36 6.07 6.07 0 0 0 2 1.66 6.14 6.14 0 0 0 2.55.62zM1258.71 256.37l-45.11 212.21a6.08 6.08 0 0 0 0 2.65 6 6 0 0 0 1.18 2.38 5.84 5.84 0 0 0 2.08 1.64 6 6 0 0 0 2.59.59h48.76a6 6 0 0 0 5.89-4.76l45.11-212.2a6.12 6.12 0 0 0 0-2.66 5.88 5.88 0 0 0-1.18-2.37 6 6 0 0 0-2.08-1.65 6.09 6.09 0 0 0-2.59-.58h-48.77a6 6 0 0 0-5.88 4.75zM941.38 246.06c-64.37 0-125.07 51.66-138.66 116-14.49 68 24.45 117.37 92.42 117.37 35.1 0 60.71-8.25 92.8-27.29a7.09 7.09 0 0 0 3.91-6.57 7.51 7.51 0 0 0-.69-3.06l-11-31c-1-2.5-2.75-5.28-5.89-4.48a21.77 21.77 0 0 0-4.42 1.65c-19.64 8.77-37.25 14.57-57.16 14.57-27.64 0-46.21-15.43-48-37.62a2.12 2.12 0 0 1 .45-1.51 2.05 2.05 0 0 1 1.37-.75h142.86a7.82 7.82 0 0 0 6.74-4.95 202.8 202.8 0 0 0 5.34-20.88c14.16-65.41-12.66-111.48-80.07-111.48zm22.36 90.19a3.13 3.13 0 0 1-1.22 1.33 3.19 3.19 0 0 1-1.75.46h-83.84a2.09 2.09 0 0 1-1-.16 2 2 0 0 1-.83-.62 2.07 2.07 0 0 1-.45-.93 2.15 2.15 0 0 1 0-1c.46-3.19 6.43-12.27 17.3-21.29 10-8.25 23.57-14.06 35.75-14.06 16.78 0 25.39 5 30.81 12.24a30.44 30.44 0 0 1 5.2 24zM1308 163.6c-19.94 0-38.51 15.87-41.26 35.34s12.26 34.44 31.26 34.44c19.91 0 38.5-15.84 41.25-35.34s-11.81-34.44-31.25-34.44zM621.24 414.48a5.92 5.92 0 0 1 6.9-.69c26.82 15.65 78.78 15.48 86.07-3.16 13.37-34.19-119.87-25.2-109.5-96.27 4.29-29.41 22-47.73 53.64-59.75 55.42-21.07 109.83-3.21 136.92 18a6.1 6.1 0 0 1 1.67 2 6 6 0 0 1-1.4 7.26l-34.65 30.26a6.06 6.06 0 0 1-7 .69c-23.85-14-66.48-22.75-79.3-4.74-8.06 11.37 5.83 22.7 19.92 27.51 24.5 8.47 86 10.78 89.88 65.19 2.42 33.94-25.66 62.79-59.55 72.48-48.71 13.89-107.08 6.54-140.71-16.51a6 6 0 0 1-1.79-2 6 6 0 0 1-.74-2.6 6 6 0 0 1 2-4.85z"/><path fill="#b7c1d8" d="M333 415H155.11a95.22 95.22 0 0 0 88.78 60.73H471a15.21 15.21 0 0 0 14.91-12.08L533.55 239a95.15 95.15 0 0 0 .28-38.51L468.5 331.25A151.51 151.51 0 0 1 333 415z"/><path fill="#949bb1" d="M453.18 124.87a95.44 95.44 0 0 1-2 26.49l-33.56 153.56a104.74 104.74 0 0 1-102.95 82.52l-165.84-1a94.68 94.68 0 0 0 6.3 28.66H333a151.51 151.51 0 0 0 135.55-83.78l65.33-130.74a95.39 95.39 0 0 0-80.68-75.75z"/><path fill="#25f" d="M425 63.29a94.65 94.65 0 0 0-66.34-27.51l-153-.85a106.65 106.65 0 0 0-104.82 83.92l-54.3 248.51a15.22 15.22 0 0 0 8.25 17 15.16 15.16 0 0 0 6.55 1.52l28.25.17 59.22.36a95.12 95.12 0 0 1 1.95-25.58l32.29-152.25A106.61 106.61 0 0 1 287.38 124h153a97.2 97.2 0 0 1 12.76.85A95.27 95.27 0 0 0 425 63.29z"/><path fill="#022ea7" d="M287.38 124a106.61 106.61 0 0 0-104.33 84.52L150.76 360.9a95.12 95.12 0 0 0-1.95 25.58l165.83 1a104.74 104.74 0 0 0 103-82.52l33.53-153.56a95.44 95.44 0 0 0 2-26.49 97.2 97.2 0 0 0-12.76-.85z"/>
</svg>